<?xml version="1.0" encoding="utf-8"?>
<svg viewBox="0 0 500 500" xmlns="http://www.w3.org/2000/svg">
  <path d="M 223.364 409.461 C 218.147 409.445 212.95 408.773 207.899 407.46 L 206.905 407.187 L 205.979 406.724 C 172.592 389.983 144.425 367.874 122.263 341.004 C 103.913 318.635 89.611 293.232 79.992 265.945 C 68.489 233.276 62.957 198.805 63.655 164.176 C 63.669 163.45 63.68 162.888 63.68 162.502 C 63.68 145.668 73.025 130.897 87.485 124.875 C 98.552 120.261 199.036 78.988 206.297 76.007 C 219.971 69.155 234.557 74.873 236.891 75.873 C 242.127 78.014 335.019 116.009 355.092 125.566 C 375.782 135.419 381.301 153.119 381.301 162.021 C 381.301 202.332 374.32 240.006 360.551 273.997 C 349.43 301.509 333.669 326.912 313.953 349.09 C 275.918 391.894 237.869 407.069 237.504 407.204 C 232.955 408.769 228.172 409.533 223.364 409.461 Z M 214.416 387.3 C 217.715 388.038 225.31 389.147 230.259 387.34 C 236.548 385.048 268.392 368.534 298.151 335.048 C 339.266 288.778 360.13 230.612 360.157 162.17 C 360.085 160.784 359.098 150.892 346.001 144.656 C 326.319 135.283 229.763 95.804 228.793 95.405 L 228.524 95.293 C 226.502 94.444 220.062 92.658 215.624 94.983 L 214.735 95.397 C 213.659 95.839 106.993 139.65 95.615 144.392 C 87.658 147.705 84.825 155.918 84.825 162.502 C 84.825 162.982 84.812 163.683 84.794 164.586 C 83.885 211.418 94.722 326.656 214.416 387.3 Z" fill="#3f3d56" style=""/>
  <path d="M 210.718 85.619 C 210.718 85.619 103.083 129.828 91.55 134.632 C 80.017 139.436 74.253 150.969 74.253 162.502 C 74.253 174.035 65.602 324.514 210.718 397.274 C 210.718 397.274 223.888 400.918 233.881 397.274 C 243.875 393.63 370.729 332.121 370.729 162.021 C 370.729 162.021 370.729 144.724 350.549 135.112 C 330.368 125.501 232.792 85.619 232.792 85.619 C 232.792 85.619 220.809 80.332 210.718 85.619 Z" fill="#000000" style=""/>
  <path d="M 222.25 120.217 L 222.25 356.045 C 222.25 356.045 113.655 303.774 114.616 166.345 L 222.25 120.217 Z" opacity="0.1" style=""/>
  <polygon points="223.666 289.711 189.072 245.23 209.192 229.586 225.57 250.645 280.904 192.232 299.409 209.763 223.666 289.711" fill="#fff" style=""/>
</svg>